<?xml version="1.0" standalone="no"?>
<!DOCTYPE svg PUBLIC "-//W3C//DTD SVG 20010904//EN"
 "http://www.w3.org/TR/2001/REC-SVG-20010904/DTD/svg10.dtd">
<svg version="1.0" xmlns="http://www.w3.org/2000/svg"
 width="1024.000000pt" height="1024.000000pt" viewBox="0 0 1024.000000 1024.000000"
 preserveAspectRatio="xMidYMid meet">
<metadata>
Created by potrace 1.11, written by Peter Selinger 2001-2013
</metadata>
<g transform="translate(0.000000,1024.000000) scale(0.100000,-0.100000)"
fill="#000000" stroke="none">
<path d="M5017 9576 c-67 -24 -82 -41 -186 -206 -144 -230 -321 -585 -464
-930 -113 -275 -267 -734 -332 -994 -2 -10 -11 -42 -19 -70 -14 -50 -93 -402
-101 -448 -2 -12 -15 -90 -29 -173 -13 -82 -27 -171 -30 -197 -3 -27 -8 -69
-11 -95 -3 -27 -8 -59 -10 -73 -3 -14 -7 -56 -10 -95 -3 -38 -8 -90 -10 -115
-8 -71 -16 -242 -20 -410 -2 -85 -4 -159 -5 -163 0 -5 -11 0 -24 10 -206 157
-291 218 -457 329 -107 72 -226 149 -263 170 -38 21 -80 46 -94 55 -38 23 -96
56 -177 101 -74 42 -590 298 -599 298 -3 0 -29 11 -58 24 -290 131 -831 318
-1051 361 -9 2 -44 11 -78 19 -80 21 -108 20 -165 -4 -66 -29 -120 -74 -152
-128 -22 -39 -27 -59 -27 -117 0 -38 6 -92 14 -120 217 -793 586 -1603 1020
-2240 145 -212 232 -330 369 -500 45 -54 79 -101 76 -104 -2 -3 -13 -6 -23 -8
-10 -1 -85 -18 -167 -38 -392 -94 -704 -203 -1029 -360 -202 -98 -250 -156
-250 -305 0 -75 3 -91 27 -131 15 -26 42 -59 60 -75 28 -23 244 -134 262 -134
3 0 34 -13 68 -29 35 -15 74 -32 88 -36 14 -4 39 -13 55 -20 106 -46 392 -139
590 -191 63 -17 315 -74 343 -79 20 -3 60 -10 87 -15 28 -5 66 -12 85 -15 19
-3 42 -8 50 -10 8 -2 40 -6 70 -10 30 -3 64 -7 75 -9 11 -2 54 -7 95 -10 41
-4 89 -9 105 -12 17 -2 185 -7 375 -10 190 -4 346 -7 347 -8 1 0 -35 -75 -81
-166 -90 -182 -172 -383 -206 -504 -35 -127 -18 -206 64 -291 88 -90 182 -102
356 -43 182 62 350 133 530 226 293 150 401 212 637 365 l102 66 3 -582 3
-583 25 -31 c44 -55 57 -58 254 -58 197 0 204 2 252 64 18 25 19 49 22 608 l2
582 83 -54 c400 -265 919 -524 1247 -623 152 -46 284 5 350 134 39 76 35 150
-18 306 -48 144 -132 349 -199 486 -25 51 -44 94 -42 96 2 2 153 6 334 9 182
3 344 8 360 11 17 2 62 7 100 10 39 4 81 8 95 11 28 5 108 15 155 20 17 1 55
8 85 14 30 6 69 13 87 15 18 3 40 7 50 10 10 3 29 7 43 10 14 2 45 9 70 15 25
5 56 12 70 14 38 7 187 46 264 68 38 12 76 22 85 24 32 6 320 104 396 135 11
4 52 20 90 35 333 133 435 199 470 305 35 107 0 239 -81 304 -110 87 -593 291
-869 366 -16 5 -55 16 -85 25 -30 9 -62 17 -70 19 -8 3 -69 18 -135 34 -123
31 -204 47 -217 44 -19 -5 -3 20 67 106 218 268 469 629 615 887 9 17 45 80
80 140 56 98 224 435 309 619 92 199 260 653 336 905 64 214 74 260 70 326 -4
73 -23 114 -75 166 -87 86 -165 101 -325 61 -212 -53 -469 -132 -652 -201 -29
-10 -53 -17 -53 -14 0 3 -6 1 -12 -4 -7 -5 -35 -18 -63 -28 -71 -25 -351 -145
-470 -200 -111 -52 -394 -193 -410 -205 -5 -4 -50 -29 -100 -55 -230 -123
-554 -333 -809 -524 -93 -69 -171 -125 -174 -124 -2 2 -6 76 -7 165 -3 148 -9
256 -21 408 -8 109 -15 185 -19 210 -2 14 -11 84 -20 155 -8 72 -19 150 -25
175 -5 25 -11 59 -14 75 -8 58 -18 111 -43 230 -14 66 -26 125 -27 130 -17 80
-31 143 -48 200 -10 39 -21 77 -23 85 -9 40 -57 218 -65 240 -5 14 -30 93 -56
175 -52 169 -159 464 -205 570 -9 22 -29 69 -44 105 -15 36 -45 103 -66 148
-22 46 -39 86 -39 89 0 4 -105 217 -138 281 -7 12 -17 32 -24 45 -19 36 -88
160 -101 182 -7 10 -41 67 -77 125 -36 58 -75 116 -88 129 -54 55 -197 78
-285 47z"/>
</g>
</svg>
